# xmcd
#
# Track frame offsets: 
#        150
#        11273
#        24421
#        36403
#        47856
#        57527
#        70233
#        81461
#        91994
#        104229
#        114315
#        122884
#        134951
#        146628
#        156825
#        168250
#
# Disc length: 2405 seconds
#
# Revision: 0
# Processed by: cddbd v1.5.2PL0 Copyright (c) Steve Scherf et al.
# Submitted via: ExactAudioCopy v0.95b4
#
DISCID=ec096310
DTITLE=Johnny Cash - The legend Lives on CD2
DYEAR=2008
DGENRE=Country
TTITLE0=Cry! Cry! Cry!
TTITLE1=Folsom Prison Blues
TTITLE2=So Gone Lonesome
TTITLE3=Mean Eyed Cat
TTITLE4=New Mexico
TTITLE5=I Walk The Line
TTITLE6=I Love You Because
TTITLE7=Straight As In Love
TTITLE8=Home Of The Blues
TTITLE9=Rock Island Line
TTITLE10=Country Boy
TTITLE11=Doin' My Time
TTITLE12=Big River
TTITLE13=Ballad Of A Teenage Queen
TTITLE14=Oh Lonesome Me
TTITLE15=You're The Nearest Thing To Heaven
EXTD=
EXTT0=
EXTT1=
EXTT2=
EXTT3=
EXTT4=
EXTT5=
EXTT6=
EXTT7=
EXTT8=
EXTT9=
EXTT10=
EXTT11=
EXTT12=
EXTT13=
EXTT14=
EXTT15=
PLAYORDER=
